PathFileType	4	(X/Y/Z)	G:\GRF\jawan data\CompiledGRF\03. Mohit Kumar\0231~ac~Standing_markers.trc
DataRate	CameraRate	NumFrames	NumMarkers	Units	OrigDataRate	OrigDataStartFrame	OrigNumFrames
100.000000	100.000000	6	18	mm	100.000000	365	584
Frame#	Time	c7			r should			l should			sacrum			r asis			r bar 1			r knee 1			r bar 2			r mall			r heel			r met			l asis			l bar 1			l knee 1			l bar 2			l mall			l heel			l met			
		X1	Y1	Z1	X2	Y2	Z2	X3	Y3	Z3	X4	Y4	Z4	X5	Y5	Z5	X6	Y6	Z6	X7	Y7	Z7	X8	Y8	Z8	X9	Y9	Z9	X10	Y10	Z10	X11	Y11	Z11	X12	Y12	Z12	X13	Y13	Z13	X14	Y14	Z14	X15	Y15	Z15	X16	Y16	Z16	X17	Y17	Z17	X18	Y18	Z18	

366	3.65	305.6913452148438	1519.21484375	150.9361267089844	396.6463928222656	1460.592407226563	321.3338928222656	391.9298095703125	1472.8125	-18.4045467376709	279.0936584472656	1058.573486328125	134.999267578125	457.2939758300781	1018.296508789063	266.8474426269531	346.3831176757813	612.8507690429688	332.8544616699219	357.5789794921875	524.5444946289063	281.9334106445313	289.5533447265625	202.1659851074219	302.8910827636719	302.95751953125	75.66403198242188	241.3507080078125	251.7342224121094	38.822998046875	189.7015838623047	453.653564453125	38.75424957275391	253.0186462402344	465.7132263183594	1025.023803710938	14.23749923706055	353.3121643066406	607.1970825195313	-41.01009750366211	356.33544921875	518.029296875	17.01289558410645	292.8099365234375	244.3389434814453	-18.99024391174316	299.8775939941406	75.44650268554688	57.6633415222168	246.9414825439453	34.62551498413086	116.9952774047852	447.5774841308594	39.39762878417969	58.31581497192383	
367	3.66	305.9745483398438	1519.212524414063	150.9959259033203	396.8816528320313	1460.605834960938	321.3499450683594	392.3016967773438	1472.776123046875	-18.40914916992188	279.2267761230469	1058.595947265625	135.0516357421875	457.3861999511719	1018.287902832031	266.8819580078125	346.3835144042969	612.8623046875	332.8239440917969	357.6216735839844	524.5499877929688	281.972900390625	289.5801086425781	202.1785736083984	302.881591796875	302.9522705078125	75.64810180664063	241.3476715087891	251.7384948730469	38.80506896972656	189.6640930175781	453.6753540039063	38.77857971191406	253.0150146484375	465.810546875	1025.045166015625	14.30001640319824	353.2576599121094	607.1714477539063	-40.95923233032227	356.2556762695313	518.0452880859375	17.07684326171875	292.8493041992188	244.3769683837891	-18.9633731842041	299.7501831054688	75.51795196533203	57.63168716430664	246.91650390625	34.57882690429688	117.0082244873047	447.5437316894531	39.35201644897461	58.25727844238281	
368	3.67	306.1714782714844	1519.274169921875	151.0403594970703	397.131103515625	1460.580322265625	321.3410949707031	392.4018249511719	1472.767333984375	-18.40358543395996	279.4004211425781	1058.585205078125	135.1018829345703	457.3728637695313	1018.262023925781	266.8889465332031	346.4133605957031	612.8526000976563	332.8767700195313	357.5335998535156	524.533203125	282.0180969238281	289.5713195800781	202.1508178710938	302.8886108398438	302.935546875	75.65523529052734	241.3612823486328	251.6006164550781	38.84078216552734	189.6380004882813	453.6837463378906	38.76351547241211	253.0295257568359	465.9218444824219	1025.04736328125	14.33283233642578	353.1434020996094	607.1408081054688	-40.9563102722168	356.2018432617188	518.0316772460938	17.07474136352539	292.7817077636719	244.3840026855469	-18.95654487609863	299.7189025878906	75.47560119628906	57.64199066162109	246.9566650390625	34.58785629272461	117.0073318481445	447.5750122070313	39.34364700317383	58.26363754272461	
369	3.68	306.4462280273438	1519.294189453125	151.1244506835938	397.3895568847656	1460.570068359375	321.3642883300781	392.4456787109375	1472.73974609375	-18.38032150268555	279.6224670410156	1058.557983398438	135.1354370117188	457.4697570800781	1018.224243164063	266.8951721191406	346.4627380371094	612.842529296875	332.931640625	357.4797668457031	524.5230712890625	282.0037231445313	289.5509033203125	202.1319274902344	302.9049377441406	303.0068969726563	75.68373107910156	241.3695983886719	251.5469207763672	38.91002655029297	189.6528015136719	453.6659545898438	38.76243209838867	253.0162658691406	465.9801330566406	1025.019409179688	14.3683557510376	353.0747985839844	607.1728515625	-40.9521598815918	356.19921875	518.008544921875	17.0899543762207	292.71142578125	244.3787841796875	-18.93247985839844	299.7568359375	75.44497680664063	57.62787246704102	246.9726409912109	34.59476852416992	116.9838180541992	447.6142272949219	39.39236450195313	58.30918121337891	
370	3.69	306.6409301757813	1519.340087890625	151.1814880371094	397.5984191894531	1460.545776367188	321.4032287597656	392.4937133789063	1472.702880859375	-18.33668327331543	279.647705078125	1058.586181640625	135.1908111572266	457.5155639648438	1018.186462402344	266.8978576660156	346.4407043457031	612.8265380859375	332.9501647949219	357.4510192871094	524.4739990234375	281.9869995117188	289.5831909179688	202.1606292724609	302.9352111816406	302.9512634277344	75.72369384765625	241.3928070068359	251.4554901123047	38.94143295288086	189.6700286865234	453.6819458007813	38.80947875976563	252.9855041503906	466.1013793945313	1025.001831054688	14.39903545379639	353.0376892089844	607.2137451171875	-40.95991516113281	356.2506408691406	518.0136108398438	17.11175537109375	292.7439270019531	244.3703308105469	-18.91179466247559	299.7882080078125	75.42916870117188	57.61859130859375	246.5591735839844	34.87019729614258	116.9914093017578	447.5294799804688	39.3582878112793	58.30967330932617	
371	3.7	306.8489685058594	1519.343872070313	151.2407073974609	397.6658020019531	1460.52197265625	321.4294738769531	392.5147094726563	1472.677368164063	-18.32948303222656	279.8162841796875	1058.57080078125	135.2320556640625	457.5953369140625	1018.199951171875	266.9168701171875	346.463623046875	612.834716796875	332.9778442382813	357.472900390625	524.4341430664063	282.0047302246094	289.4939270019531	202.1965484619141	302.8975830078125	302.8998107910156	75.73555755615234	241.3845062255859	251.6824340820313	38.79536819458008	189.6891937255859	453.765625	38.79792404174805	253.0016937255859	466.1090698242188	1024.968139648438	14.44690036773682	353.0695495605469	607.1852416992188	-40.93476867675781	356.2863464355469	518.0325317382813	17.13372039794922	292.7864379882813	244.3700866699219	-18.94225883483887	299.6208801269531	75.49246978759766	57.64732360839844	246.5008544921875	34.96050262451172	116.9247436523438	447.4354248046875	39.35688400268555	58.31142425537109	
